<?xml version="1.0" encoding="UTF-8" standalone="no"?>
<!-- Generator: Adobe Illustrator 25.4.1, SVG Export Plug-In . SVG Version: 6.00 Build 0)  -->

<svg
  version="1.1"
  x="0px"
  y="0px"
  viewBox="0 0 255.5 255.3"
  xml:space="preserve"
  id="svg50"
  sodipodi:docname="HAL_logo.svg"
  width="255.5"
  height="255.3"
  inkscape:version="1.1.1 (3bf5ae0d25, 2021-09-20)"
  xmlns:inkscape="http://www.inkscape.org/namespaces/inkscape"
  xmlns:sodipodi="http://sodipodi.sourceforge.net/DTD/sodipodi-0.dtd"
  xmlns="http://www.w3.org/2000/svg"
  xmlns:svg="http://www.w3.org/2000/svg"
>
  <defs id="defs54"></defs>
  <sodipodi:namedview
    id="namedview52"
    pagecolor="#ffffff"
    bordercolor="#666666"
    borderopacity="1.0"
    inkscape:pageshadow="2"
    inkscape:pageopacity="0.0"
    inkscape:pagecheckerboard="0"
    showgrid="false"
    inkscape:zoom="1.187037"
    inkscape:cx="592.65211"
    inkscape:cy="177.75351"
    inkscape:window-width="1920"
    inkscape:window-height="1011"
    inkscape:window-x="0"
    inkscape:window-y="32"
    inkscape:window-maximized="0"
    inkscape:current-layer="Contenu"
  />
  <style type="text/css" id="style2">
    .st0 {
      display: none;
    }
    .st1 {
      display: inline;
      fill: #ffffff;
    }
    .st2 {
      fill: #ff4600;
    }
    .st3 {
      fill: #cd3c1b;
    }
    .st4 {
      fill: #a53232;
    }
    .st5 {
      fill: #7d2d46;
    }
    .st6 {
      fill: #64286e;
    }
    .st7 {
      fill: #411489;
    }
    .st8 {
      fill: #171775;
    }
    .st9 {
      fill: #00005f;
    }
  </style>
  <g id="Background" class="st0" transform="translate(-126.01062,-84.486596)">
    <rect
      x="-2.5"
      y="-2.5999999"
      class="st1"
      width="1085"
      height="530"
      id="rect4"
    />
  </g>
  <g id="Contenu" transform="translate(-126.01062,-84.486596)">
    <g id="g37" transform="translate(-9.7893839,-50.913404)">
      <g id="g35">
        <g id="g9">
          <path
            class="st2"
            d="m 336.3,191.5 c 5,5 11.6,7.8 18.7,7.8 0,0 0.1,0 0.1,0 6.1,0 11.8,-2 16.5,-5.8 -9.6,-14.9 -22.2,-27.8 -36.9,-37.6 -3.9,4.7 -6.1,10.6 -6.1,16.8 0,7.2 2.7,13.8 7.7,18.8 z"
            id="path7"
          />
        </g>
        <g id="g13">
          <path
            class="st3"
            d="m 328.5,200 c -14.6,-14.5 -22.6,-33.8 -22.5,-54.2 0,-1.4 0.1,-2.8 0.1,-4.1 -8.6,-3 -17.6,-5.2 -26.9,-6.3 -0.4,3.4 -0.5,6.9 -0.5,10.3 -0.1,27.8 10.8,53.9 30.6,73.6 20.5,20.4 47.5,30.6 74.5,30.6 2.5,0 5,-0.1 7.5,-0.3 -1,-9.3 -2.9,-18.4 -5.8,-27 -20.7,0.5 -41.4,-7.1 -57,-22.6 z"
            id="path11"
          />
        </g>
        <g id="g17">
          <path
            class="st4"
            d="M 301.4,227.7 C 275,201.4 255.8,170 244.9,135.6 c -9.2,1.3 -18,3.6 -26.5,6.7 12.1,39 33.8,74.9 63.7,104.7 29.3,29.2 64.1,49.8 101.1,62 3.2,-8.4 5.7,-17.2 7.1,-26.4 -32.5,-10.9 -63.1,-29.2 -88.9,-54.9 z"
            id="path15"
          />
        </g>
        <g id="g21">
          <path
            class="st5"
            d="m 363.5,343.5 -180,-181.3 c -7.1,5.7 -13.7,12.1 -19.5,19.1 l 180.2,181.5 c 7.1,-5.7 13.6,-12.2 19.3,-19.3 z"
            id="path19"
          />
        </g>
        <g id="g25">
          <path
            class="st6"
            d="m 142.9,217.9 c -3.2,8.5 -5.5,17.3 -6.8,26.5 33.4,10.9 64.8,29.4 91.2,55.7 25.8,25.7 44.7,56.4 55.8,89.8 9.2,-1.4 18,-3.8 26.4,-7.1 -12.3,-38.1 -33.6,-73 -62.9,-102.1 -30,-29.8 -65.7,-50.7 -103.7,-62.8 z"
            id="path23"
          />
        </g>
        <g id="g29">
          <path
            class="st7"
            d="m 219.5,308.5 c -22.8,-22.7 -53.7,-32.8 -83.7,-30.2 1.1,9.3 3.2,18.3 6.2,26.9 21,-0.8 42.3,6.7 58.3,22.6 14.6,14.5 22.6,33.8 22.5,54.2 0,0.9 0,1.9 -0.1,2.8 8.6,2.9 17.6,4.9 27,5.9 0.2,-2.8 0.4,-5.7 0.4,-8.6 0,-27.7 -10.8,-53.9 -30.6,-73.6 z"
            id="path27"
          />
        </g>
        <g id="g33">
          <path
            class="st8"
            d="m 192.5,336.3 c -5,-5 -11.6,-7.8 -18.7,-7.8 0,0 -0.1,0 -0.1,0 -6.3,0 -12.2,2.2 -17,6.2 9.9,14.7 22.8,27.2 37.8,36.7 3.7,-4.6 5.7,-10.3 5.7,-16.3 0,-7.1 -2.8,-13.7 -7.7,-18.8 z"
            id="path31"
          />
        </g>
      </g>
    </g>
  </g>
</svg>
